<svg width="133" height="31" viewBox="0 0 133 31" fill="none" xmlns="http://www.w3.org/2000/svg">
<path d="M0.0227273 24V0.727272H9.20455C10.9697 0.727272 12.4735 1.06439 13.7159 1.73864C14.9583 2.4053 15.9053 3.33333 16.5568 4.52273C17.2159 5.70454 17.5455 7.06818 17.5455 8.61364C17.5455 10.1591 17.2121 11.5227 16.5455 12.7045C15.8788 13.8864 14.9129 14.8068 13.6477 15.4659C12.3902 16.125 10.8674 16.4545 9.07955 16.4545H3.22727V12.5114H8.28409C9.23106 12.5114 10.0114 12.3485 10.625 12.0227C11.2462 11.6894 11.7083 11.2311 12.0114 10.6477C12.322 10.0568 12.4773 9.37879 12.4773 8.61364C12.4773 7.84091 12.322 7.16667 12.0114 6.59091C11.7083 6.00757 11.2462 5.55682 10.625 5.23864C10.0038 4.91288 9.21591 4.75 8.26136 4.75H4.94318V24H0.0227273ZM25.4915 0.727272V24H20.6506V0.727272H25.4915ZM34.3466 24.3295C33.233 24.3295 32.2405 24.1364 31.3693 23.75C30.4981 23.3561 29.8087 22.7765 29.3011 22.0114C28.8011 21.2386 28.5511 20.2765 28.5511 19.125C28.5511 18.1553 28.7292 17.3409 29.0852 16.6818C29.4413 16.0227 29.9261 15.4924 30.5398 15.0909C31.1534 14.6894 31.8504 14.3864 32.6307 14.1818C33.4186 13.9773 34.2443 13.8333 35.108 13.75C36.1231 13.6439 36.9413 13.5455 37.5625 13.4545C38.1837 13.3561 38.6345 13.2121 38.9148 13.0227C39.1951 12.8333 39.3352 12.553 39.3352 12.1818V12.1136C39.3352 11.3939 39.108 10.8371 38.6534 10.4432C38.2064 10.0492 37.5701 9.85227 36.7443 9.85227C35.8731 9.85227 35.1799 10.0455 34.6648 10.4318C34.1496 10.8106 33.8087 11.2879 33.642 11.8636L29.1648 11.5C29.392 10.4394 29.839 9.52273 30.5057 8.75C31.1723 7.9697 32.0322 7.37121 33.0852 6.95454C34.1458 6.5303 35.3731 6.31818 36.767 6.31818C37.7367 6.31818 38.6648 6.43182 39.5511 6.65909C40.4451 6.88636 41.2367 7.23864 41.9261 7.71591C42.6231 8.19318 43.1723 8.80682 43.5739 9.55682C43.9754 10.2992 44.1761 11.1894 44.1761 12.2273V24H39.5852V21.5795H39.4489C39.1686 22.125 38.7936 22.6061 38.3239 23.0227C37.8542 23.4318 37.2898 23.7538 36.6307 23.9886C35.9716 24.2159 35.2102 24.3295 34.3466 24.3295ZM35.733 20.9886C36.4451 20.9886 37.0739 20.8485 37.6193 20.5682C38.1648 20.2803 38.5928 19.8939 38.9034 19.4091C39.214 18.9242 39.3693 18.375 39.3693 17.7614V15.9091C39.2178 16.0076 39.0095 16.0985 38.7443 16.1818C38.4867 16.2576 38.1951 16.3295 37.8693 16.3977C37.5436 16.4583 37.2178 16.5152 36.892 16.5682C36.5663 16.6136 36.2708 16.6553 36.0057 16.6932C35.4375 16.7765 34.9413 16.9091 34.517 17.0909C34.0928 17.2727 33.7633 17.5189 33.5284 17.8295C33.2936 18.1326 33.1761 18.5114 33.1761 18.9659C33.1761 19.625 33.4148 20.1288 33.892 20.4773C34.3769 20.8182 34.9905 20.9886 35.733 20.9886ZM50.2955 30.5455C49.6818 30.5455 49.1061 30.4962 48.5682 30.3977C48.0379 30.3068 47.5985 30.1894 47.25 30.0455L48.3409 26.4318C48.9091 26.6061 49.4205 26.7008 49.875 26.7159C50.3371 26.7311 50.7348 26.625 51.0682 26.3977C51.4091 26.1705 51.6856 25.7841 51.8977 25.2386L52.1818 24.5L45.9205 6.54545H51.0114L54.625 19.3636H54.8068L58.4545 6.54545H63.5795L56.7955 25.8864C56.4697 26.8258 56.0265 27.6439 55.4659 28.3409C54.9129 29.0455 54.2121 29.5871 53.3636 29.9659C52.5152 30.3523 51.4924 30.5455 50.2955 30.5455Z" fill="#009DE0"/>
<path d="M66.9432 24V0.727272H74.8068C76.625 0.727272 78.1174 1.03788 79.2841 1.65909C80.4508 2.27273 81.3144 3.11742 81.875 4.19318C82.4356 5.26894 82.7159 6.49242 82.7159 7.86364C82.7159 9.23485 82.4356 10.4508 81.875 11.5114C81.3144 12.572 80.4545 13.4053 79.2955 14.0114C78.1364 14.6098 76.6553 14.9091 74.8523 14.9091H68.4886V12.3636H74.7614C76.0038 12.3636 77.0038 12.1818 77.7614 11.8182C78.5265 11.4545 79.0795 10.9394 79.4205 10.2727C79.7689 9.59848 79.9432 8.79545 79.9432 7.86364C79.9432 6.93182 79.7689 6.11742 79.4205 5.42045C79.072 4.72348 78.5152 4.18561 77.75 3.80682C76.9848 3.42045 75.9735 3.22727 74.7159 3.22727H69.7614V24H66.9432ZM77.8977 13.5455L83.625 24H80.3523L74.7159 13.5455H77.8977ZM94.179 24.3636C92.4972 24.3636 91.0464 23.9924 89.8267 23.25C88.6146 22.5 87.679 21.4545 87.0199 20.1136C86.3684 18.7652 86.0426 17.197 86.0426 15.4091C86.0426 13.6212 86.3684 12.0455 87.0199 10.6818C87.679 9.31061 88.5956 8.24242 89.7699 7.47727C90.9517 6.70455 92.3305 6.31818 93.9062 6.31818C94.8153 6.31818 95.7131 6.4697 96.5994 6.77273C97.4858 7.07576 98.2926 7.56818 99.0199 8.25C99.7472 8.92424 100.327 9.81818 100.759 10.9318C101.19 12.0455 101.406 13.4167 101.406 15.0455V16.1818H87.9517V13.8636H98.679C98.679 12.8788 98.482 12 98.0881 11.2273C97.7017 10.4545 97.1487 9.8447 96.429 9.39773C95.7169 8.95076 94.8759 8.72727 93.9062 8.72727C92.8381 8.72727 91.9138 8.99242 91.1335 9.52273C90.3608 10.0455 89.7661 10.7273 89.3494 11.5682C88.9328 12.4091 88.7244 13.3106 88.7244 14.2727V15.8182C88.7244 17.1364 88.9517 18.2538 89.4062 19.1705C89.8684 20.0795 90.5085 20.7727 91.3267 21.25C92.1449 21.7197 93.0956 21.9545 94.179 21.9545C94.8835 21.9545 95.5199 21.8561 96.0881 21.6591C96.6638 21.4545 97.16 21.1515 97.5767 20.75C97.9934 20.3409 98.3153 19.8333 98.5426 19.2273L101.134 19.9545C100.861 20.8333 100.402 21.6061 99.7585 22.2727C99.1146 22.9318 98.3191 23.447 97.3722 23.8182C96.4252 24.1818 95.3608 24.3636 94.179 24.3636ZM108.168 13.5V24H105.486V6.54545H108.077V9.27273H108.304C108.713 8.38636 109.334 7.67424 110.168 7.13636C111.001 6.59091 112.077 6.31818 113.395 6.31818C114.577 6.31818 115.611 6.56061 116.497 7.04545C117.384 7.52273 118.073 8.25 118.565 9.22727C119.058 10.197 119.304 11.4242 119.304 12.9091V24H116.622V13.0909C116.622 11.7197 116.266 10.6515 115.554 9.88636C114.842 9.11364 113.865 8.72727 112.622 8.72727C111.766 8.72727 111.001 8.91288 110.327 9.28409C109.66 9.6553 109.134 10.197 108.747 10.9091C108.361 11.6212 108.168 12.4848 108.168 13.5ZM131.795 6.54545V8.81818H122.75V6.54545H131.795ZM125.386 2.36364H128.068V19C128.068 19.7576 128.178 20.3258 128.398 20.7045C128.625 21.0758 128.913 21.3258 129.261 21.4545C129.617 21.5758 129.992 21.6364 130.386 21.6364C130.682 21.6364 130.924 21.6212 131.114 21.5909C131.303 21.553 131.455 21.5227 131.568 21.5L132.114 23.9091C131.932 23.9773 131.678 24.0455 131.352 24.1136C131.027 24.1894 130.614 24.2273 130.114 24.2273C129.356 24.2273 128.614 24.0644 127.886 23.7386C127.167 23.4129 126.568 22.9167 126.091 22.25C125.621 21.5833 125.386 20.7424 125.386 19.7273V2.36364Z" fill="#FF9900"/>
</svg>
